<svg id="b5571920-6409-4092-9b62-a31de9e7606b" data-name="Layer 1" xmlns="http://www.w3.org/2000/svg" viewBox="0 0 512 512"><defs><style>.ff0f4d05-71e8-47f1-880c-b5fb627f5c84{fill:#0668e1;}</style></defs><path class="ff0f4d05-71e8-47f1-880c-b5fb627f5c84" d="M31.85,400q-7.43,0-11.34-2.48a13.49,13.49,0,0,1-5.57-6.8,26.86,26.86,0,0,1-1.65-9.7V130.16a23.67,23.67,0,0,1,1.65-9.28,13.51,13.51,0,0,1,5.77-6.39q4.13-2.47,12-2.48a47.46,47.46,0,0,1,9.9.83,18.5,18.5,0,0,1,6,2.27,22.33,22.33,0,0,1,4.75,4.33L161,275.39H148.2L257.12,118.2a16.6,16.6,0,0,1,4.95-4.13,19,19,0,0,1,6.4-1.65,91.53,91.53,0,0,1,9.28-.41q7.83,0,11.76,2.48a13.64,13.64,0,0,1,5.57,6.8,27.34,27.34,0,0,1,1.65,9.7V381.84a24.36,24.36,0,0,1-1.65,9.07,13.42,13.42,0,0,1-5.78,6.6q-4.12,2.48-12,2.48-7.44,0-11.35-2.48a12.49,12.49,0,0,1-5.36-6.8,30.36,30.36,0,0,1-1.45-9.7V173.9l-88.29,130a17.2,17.2,0,0,1-3.3,3.92,17,17,0,0,1-5.16,3.09,20.52,20.52,0,0,1-7.63,1.24,16.24,16.24,0,0,1-12.38-4.33,41.08,41.08,0,0,1-4.12-4.33L50.42,174.31V381.84A27.3,27.3,0,0,1,49,390.91a12.6,12.6,0,0,1-5.37,6.6Q39.68,400,31.85,400Z"/><path class="ff0f4d05-71e8-47f1-880c-b5fb627f5c84" d="M295.73,269.61V235H468.18l-.41,34.65ZM479.73,400q-7.83,0-11.75-2.27a10.77,10.77,0,0,1-5.16-6.6A36.8,36.8,0,0,1,461.58,381V130.58a34.67,34.67,0,0,1,1.24-9.91,10.66,10.66,0,0,1,5.36-6.39q4.13-2.27,12-2.27,8.25,0,12.17,2.27a10.85,10.85,0,0,1,5.16,6.39A36.76,36.76,0,0,1,498.71,131V381.42a30.18,30.18,0,0,1-1.44,9.91,11.71,11.71,0,0,1-5.36,6.39Q488,400,479.73,400Z"/></svg>